<?xml version="1.0" encoding="utf-8"?>
<!-- Generator: Adobe Illustrator 19.1.0, SVG Export Plug-In . SVG Version: 6.00 Build 0)  -->
<svg version="1.1" id="Layer_1" xmlns="http://www.w3.org/2000/svg" xmlns:xlink="http://www.w3.org/1999/xlink" x="0px" y="0px"
	 viewBox="-554 758 56 32" style="enable-background:new -554 758 56 32;" xml:space="preserve">
<style type="text/css">
	.st0{fill:#FFFFFF;}
</style>
<title>cloud</title>
<desc>Created with Sketch.</desc>
<g>
	<g transform="translate(-62.000000, -78.000000)">
		<path class="st0" d="M-454.8,842.9c-2.9-4.2-7.8-6.9-13.2-6.9c-6.2,0-11.6,3.5-14.3,8.7c-0.8,1.5-1.2,3.4-1.2,3.4
			c-4.9,0.8-8.5,4.9-8.5,9.9c0,5.5,4.5,10,10,10h39c3.9,0,7-3.1,7-7c0-2.9-1.7-5.4-4.2-6.4c-0.8-0.4-1.8-0.5-1.8-0.5
			c0-5.6-4.5-10-10-10c-0.7,0-2,0.2-2,0.2S-454.3,843.7-454.8,842.9z M-457,847.2c0.3,1.1,1.6,1.7,2.7,1.3c0.7-0.3,1.5-0.5,2.3-0.5
			c3.3,0,6,2.7,6,6c0,0.2,0,0.5,0,0.7c0,0.3,0,0.5-0.1,1.1c0,0.1,0,0.1,0,0.1c-0.2,1.4,1.1,2.5,2.5,2.2c0.2-0.1,0.5-0.1,0.7-0.1
			c1.7,0,3,1.3,3,3c0,1.7-1.3,3-3,3h-39c-3.3,0-6-2.7-6-6c0-3.3,2.7-6,6.2-6.1c1,0,1.8-0.7,2-1.7c0.9-5.8,5.9-10.2,11.9-10.2
			c4.8,0,9,2.8,10.9,7.1C-457,847.1-457,847.2-457,847.2z"/>
	</g>
</g>
</svg>
