<?xml version="1.0" encoding="utf-8"?>
<!-- Generator: Adobe Illustrator 19.1.0, SVG Export Plug-In . SVG Version: 6.00 Build 0)  -->
<svg version="1.1" id="Layer_1" xmlns="http://www.w3.org/2000/svg" xmlns:xlink="http://www.w3.org/1999/xlink" x="0px" y="0px"
	 viewBox="-546 735 63.8 52" style="enable-background:new -546 735 63.8 52;" xml:space="preserve">
<style type="text/css">
	.st0{fill:#FFFFFF;}
</style>
<title>cloudy_night</title>
<desc>Created with Sketch.</desc>
<g>
	<g transform="translate(-178.000000, -183.000000)">
		<g transform="translate(178.000000, 183.000000)">
			<path class="st0" d="M-508.8,761.9c-2.9-4.2-7.8-6.9-13.2-6.9c-6.2,0-11.6,3.5-14.3,8.7c-0.8,1.5-1.2,3.4-1.2,3.4
				c-4.9,0.8-8.5,4.9-8.5,9.9c0,5.5,4.5,10,10,10h39c3.9,0,7-3.1,7-7c0-2.9-1.7-5.4-4.2-6.4c-0.8-0.4-1.8-0.5-1.8-0.5
				c0-5.6-4.5-10-10-10c-0.7,0-2,0.2-2,0.2S-508.3,762.7-508.8,761.9z M-511,766.2c0.3,1.1,1.6,1.7,2.7,1.3c0.7-0.3,1.5-0.5,2.3-0.5
				c3.3,0,6,2.7,6,6c0,0.2,0,0.5,0,0.7c0,0.3,0,0.5-0.1,1.1c0,0.1,0,0.1,0,0.1c-0.2,1.4,1.1,2.5,2.5,2.2c0.2-0.1,0.5-0.1,0.7-0.1
				c1.7,0,3,1.3,3,3c0,1.7-1.3,3-3,3h-39c-3.3,0-6-2.7-6-6c0-3.3,2.7-6,6.2-6.1c1,0,1.8-0.7,2-1.7c0.9-5.8,5.9-10.2,11.9-10.2
				c4.8,0,9,2.8,10.9,7.1C-511,766.1-511,766.2-511,766.2z"/>
			<path class="st0" d="M-489.9,755.7c-1.2,0.7-2.6,1.1-4.1,1.1c-4.4,0-8-3.6-8-8c0-1.6,0.5-3.1,1.3-4.4c1.2-1.8,2.8-2.6,2.8-2.6
				c0.5,5.8,5.1,10.4,10.9,10.9C-487.1,752.8-488,754.6-489.9,755.7z M-484.5,748.7c-0.5,0.1-1,0.1-1.5,0.1c-4.4,0-8-3.6-8-8
				c0-0.5,0-1,0.1-1.5c0.3-1.4-1-2.6-2.3-2.3c-5.6,1-9.8,6-9.8,11.8c0,6.6,5.4,12,12,12c5.8,0,10.8-4.2,11.8-9.8
				C-481.9,749.6-483.2,748.4-484.5,748.7z"/>
			<circle class="st0" cx="-538" cy="751" r="3"/>
			<circle class="st0" cx="-517" cy="745" r="3"/>
			<circle class="st0" cx="-531" cy="738" r="3"/>
		</g>
	</g>
</g>
</svg>
