<?xml version="1.0" encoding="utf-8"?>
<!-- Generator: Adobe Illustrator 19.1.0, SVG Export Plug-In . SVG Version: 6.00 Build 0)  -->
<svg version="1.1" id="Layer_1" xmlns="http://www.w3.org/2000/svg" xmlns:xlink="http://www.w3.org/1999/xlink" x="0px" y="0px"
	 viewBox="-252 366 54 39" style="enable-background:new -252 366 54 39;" xml:space="preserve">
<style type="text/css">
	.st0{fill:#FFFFFF;}
</style>
<path class="st0" d="M-220.5,396h-27c-0.8,0-1.5-0.7-1.5-1.5l0,0c0-0.8,0.7-1.5,1.5-1.5h27c0.8,0,1.5,0.7,1.5,1.5l0,0
	C-219,395.3-219.7,396-220.5,396z M-202.5,393h-9c-0.8,0-1.5,0.7-1.5,1.5l0,0c0,0.8,0.7,1.5,1.5,1.5h9c0.8,0,1.5-0.7,1.5-1.5l0,0
	C-201,393.7-201.7,393-202.5,393z M-241.5,384h-9c-0.8,0-1.5,0.7-1.5,1.5l0,0c0,0.8,0.7,1.5,1.5,1.5h9c0.8,0,1.5-0.7,1.5-1.5l0,0
	C-240,384.7-240.7,384-241.5,384z M-199.5,384h-33c-0.8,0-1.5,0.7-1.5,1.5l0,0c0,0.8,0.7,1.5,1.5,1.5h33c0.8,0,1.5-0.7,1.5-1.5l0,0
	C-198,384.7-198.7,384-199.5,384z M-220.5,375h-27c-0.8,0-1.5,0.7-1.5,1.5l0,0c0,0.8,0.7,1.5,1.5,1.5h27c0.8,0,1.5-0.7,1.5-1.5l0,0
	C-219,375.7-219.7,375-220.5,375z M-202.5,375h-9c-0.8,0-1.5,0.7-1.5,1.5l0,0c0,0.8,0.7,1.5,1.5,1.5h9c0.8,0,1.5-0.7,1.5-1.5l0,0
	C-201,375.7-201.7,375-202.5,375z M-226.5,369h18c0.8,0,1.5-0.7,1.5-1.5l0,0c0-0.8-0.7-1.5-1.5-1.5h-18c-0.8,0-1.5,0.7-1.5,1.5l0,0
	C-228,368.3-227.3,369-226.5,369z M-241.5,369h6c0.8,0,1.5-0.7,1.5-1.5l0,0c0-0.8-0.7-1.5-1.5-1.5h-6c-0.8,0-1.5,0.7-1.5,1.5l0,0
	C-243,368.3-242.3,369-241.5,369z M-226.5,405h18c0.8,0,1.5-0.7,1.5-1.5l0,0c0-0.8-0.7-1.5-1.5-1.5h-18c-0.8,0-1.5,0.7-1.5,1.5l0,0
	C-228,404.3-227.3,405-226.5,405z M-241.5,405h6c0.8,0,1.5-0.7,1.5-1.5l0,0c0-0.8-0.7-1.5-1.5-1.5h-6c-0.8,0-1.5,0.7-1.5,1.5l0,0
	C-243,404.3-242.3,405-241.5,405z"/>
</svg>
