<?xml version="1.0" encoding="utf-8"?>
<!-- Generator: Adobe Illustrator 19.1.0, SVG Export Plug-In . SVG Version: 6.00 Build 0)  -->
<svg version="1.1" id="Layer_1" xmlns="http://www.w3.org/2000/svg" xmlns:xlink="http://www.w3.org/1999/xlink" x="0px" y="0px"
	 viewBox="-562 739.3 48.7 48.7" style="enable-background:new -562 739.3 48.7 48.7;" xml:space="preserve">
<style type="text/css">
	.st0{fill:#FFFFFF;}
</style>
<title>moon</title>
<desc>Created with Sketch.</desc>
<g>
	<g transform="translate(-186.000000, -63.000000)">
		<path class="st0" d="M-336.1,840.8c-3.8,3.9-9.2,6.2-14.9,6.2c-11.6,0-21-9.4-21-21c0-6.1,2.7-11.8,7-15.7c2-1.8,3.3-2.4,3.3-2.4
			c-0.2,1.3-0.3,2.7-0.3,4.1c0,13.8,11.2,25,25,25c1.4,0,2.8-0.1,4.1-0.3C-332.9,836.7-333.9,838.7-336.1,840.8z M-330,831.8
			c-2.2,0.8-4.6,1.2-7,1.2c-11.6,0-21-9.4-21-21c0-2.4,0.4-4.8,1.2-7c0.6-1.6-1-3.1-2.6-2.6c-9.9,3.5-16.6,12.9-16.6,23.6
			c0,13.8,11.2,25,25,25c10.7,0,20.1-6.7,23.6-16.6C-326.9,832.8-328.4,831.3-330,831.8z"/>
	</g>
</g>
</svg>
