<?xml version="1.0" encoding="utf-8"?>
<!-- Generator: Adobe Illustrator 19.1.0, SVG Export Plug-In . SVG Version: 6.00 Build 0)  -->
<svg version="1.1" id="Layer_1" xmlns="http://www.w3.org/2000/svg" xmlns:xlink="http://www.w3.org/1999/xlink" x="0px" y="0px"
	 viewBox="-554 746.7 57 41.8" style="enable-background:new -554 746.7 57 41.8;" xml:space="preserve">
<style type="text/css">
	.st0{fill:#FFFFFF;}
</style>
<title>night</title>
<desc>Created with Sketch.</desc>
<g>
	<g transform="translate(-302.000000, -187.000000)">
		<g transform="translate(302.000000, 187.000000)">
			<path class="st0" d="M-537.9,783.4c-1.2,0.7-2.6,1.1-4.1,1.1c-4.4,0-8-3.6-8-8c0-1.6,0.5-3.1,1.3-4.4c1.2-1.8,2.8-2.6,2.8-2.6
				c0.5,5.8,5.1,10.4,10.9,10.9C-535.1,780.5-536,782.3-537.9,783.4z M-532.5,776.4c-0.5,0.1-1,0.1-1.5,0.1c-4.4,0-8-3.6-8-8
				c0-0.5,0-1,0.1-1.5c0.3-1.4-1-2.6-2.3-2.3c-5.6,1-9.8,6-9.8,11.8c0,6.6,5.4,12,12,12c5.8,0,10.8-4.2,11.8-9.8
				C-529.9,777.4-531.2,776.1-532.5,776.4z"/>
			<circle class="st0" cx="-519" cy="763.7" r="3"/>
			<circle class="st0" cx="-512" cy="749.7" r="3"/>
			<circle class="st0" cx="-500" cy="772.7" r="3"/>
			<circle class="st0" cx="-519" cy="781.7" r="3"/>
			<circle class="st0" cx="-534" cy="755.7" r="3"/>
		</g>
	</g>
</g>
</svg>
