<?xml version="1.0" encoding="utf-8"?>
<!-- Generator: Adobe Illustrator 19.1.0, SVG Export Plug-In . SVG Version: 6.00 Build 0)  -->
<svg version="1.1" id="Layer_1" xmlns="http://www.w3.org/2000/svg" xmlns:xlink="http://www.w3.org/1999/xlink" x="0px" y="0px"
	 viewBox="-552 731 59 56" style="enable-background:new -552 731 59 56;" xml:space="preserve">
<style type="text/css">
	.st0{fill:#FFFFFF;}
</style>
<title>partly_cloudy</title>
<desc>Created with Sketch.</desc>
<g>
	<g transform="translate(-542.000000, -62.000000)">
		<g transform="translate(542.000000, 62.000000)">
			<path class="st0" d="M-514.8,761.9c-2.9-4.2-7.8-6.9-13.2-6.9c-6.2,0-11.6,3.5-14.3,8.7c-0.8,1.5-1.2,3.4-1.2,3.4
				c-4.9,0.8-8.5,4.9-8.5,9.9c0,5.5,4.5,10,10,10h39c3.9,0,7-3.1,7-7c0-2.9-1.7-5.4-4.2-6.4c-0.8-0.4-1.8-0.5-1.8-0.5
				c0-5.6-4.5-10-10-10c-0.7,0-2,0.2-2,0.2S-514.3,762.7-514.8,761.9z M-517,766.2c0.3,1.1,1.6,1.7,2.7,1.3c0.7-0.3,1.5-0.5,2.3-0.5
				c3.3,0,6,2.7,6,6c0,0.2,0,0.5,0,0.7c0,0.3,0,0.5-0.1,1.1c0,0.1,0,0.1,0,0.1c-0.2,1.4,1.1,2.5,2.5,2.2c0.2-0.1,0.5-0.1,0.7-0.1
				c1.7,0,3,1.3,3,3c0,1.7-1.3,3-3,3h-39c-3.3,0-6-2.7-6-6c0-3.3,2.7-6,6.2-6.1c1,0,1.8-0.7,2-1.7c0.9-5.8,5.9-10.2,11.9-10.2
				c4.8,0,9,2.8,10.9,7.1C-517,766.1-517,766.2-517,766.2z"/>
			<path class="st0" d="M-519,745c-3.2,0-6.2,1.3-8.4,3.4c-0.8,0.8-0.8,2,0,2.8c0.8,0.8,2,0.8,2.8,0c1.5-1.5,3.5-2.3,5.6-2.3
				c4.4,0,8,3.6,8,8c0,1.1,0.9,2,2,2c1.1,0,2-0.9,2-2C-507,750.4-512.4,745-519,745z"/>
			<path class="st0" d="M-517,733c0-1.1-0.9-2-2-2s-2,0.9-2,2v6c0,1.1,0.9,2,2,2s2-0.9,2-2V733z"/>
			<path class="st0" d="M-495,759c1.1,0,2-0.9,2-2s-0.9-2-2-2h-6c-1.1,0-2,0.9-2,2s0.9,2,2,2H-495z"/>
			<path class="st0" d="M-500.6,741.4c0.8-0.8,0.8-2,0-2.8c-0.8-0.8-2-0.8-2.8,0l-4.2,4.2c-0.8,0.8-0.8,2,0,2.8c0.8,0.8,2,0.8,2.8,0
				L-500.6,741.4z"/>
			<path class="st0" d="M-534.6,738.6c-0.8-0.8-2-0.8-2.8,0c-0.8,0.8-0.8,2,0,2.8l4.2,4.2c0.8,0.8,2,0.8,2.8,0c0.8-0.8,0.8-2,0-2.8
				L-534.6,738.6z"/>
		</g>
	</g>
</g>
</svg>
