<?xml version="1.0" encoding="utf-8"?>
<!-- Generator: Adobe Illustrator 19.1.0, SVG Export Plug-In . SVG Version: 6.00 Build 0)  -->
<svg version="1.1" id="Layer_1" xmlns="http://www.w3.org/2000/svg" xmlns:xlink="http://www.w3.org/1999/xlink" x="0px" y="0px"
	 viewBox="-562 740 48 48" style="enable-background:new -562 740 48 48;" xml:space="preserve">
<style type="text/css">
	.st0{fill:#FFFFFF;}
</style>
<title>sun_weak</title>
<desc>Created with Sketch.</desc>
<g>
	<g transform="translate(-426.000000, -66.000000)">
		<g transform="translate(426.000000, 66.000000)">
			<path class="st0" d="M-526,764c0-6.6-5.4-12-12-12s-12,5.4-12,12s5.4,12,12,12S-526,770.6-526,764z M-546,764c0-4.4,3.6-8,8-8
				s8,3.6,8,8s-3.6,8-8,8S-546,768.4-546,764z"/>
			<g transform="translate(22.000000, 0.000000)">
				<path class="st0" d="M-558,742c0-1.1-0.9-2-2-2s-2,0.9-2,2v4c0,1.1,0.9,2,2,2s2-0.9,2-2V742z"/>
				<path class="st0" d="M-558,782c0-1.1-0.9-2-2-2s-2,0.9-2,2v4c0,1.1,0.9,2,2,2s2-0.9,2-2V782z"/>
			</g>
			
				<g transform="translate(24.000000, 24.000000) rotate(90.000000) translate(-24.000000, -24.000000) translate(22.000000, 0.000000)">
				<path class="st0" d="M744,564c0-1.1-0.9-2-2-2s-2,0.9-2,2v4c0,1.1,0.9,2,2,2s2-0.9,2-2V564z"/>
				<path class="st0" d="M744,604c0-1.1-0.9-2-2-2s-2,0.9-2,2v4c0,1.1,0.9,2,2,2s2-0.9,2-2V604z"/>
			</g>
			
				<g transform="translate(24.000000, 24.000000) rotate(45.000000) translate(-24.000000, -24.000000) translate(22.000000, 0.000000)">
				<path class="st0" d="M129.9,922.6c0-1.1-0.9-2-2-2s-2,0.9-2,2v4c0,1.1,0.9,2,2,2s2-0.9,2-2V922.6z"/>
				<path class="st0" d="M129.9,962.6c0-1.1-0.9-2-2-2s-2,0.9-2,2v4c0,1.1,0.9,2,2,2s2-0.9,2-2V962.6z"/>
			</g>
			
				<g transform="translate(24.000000, 24.000000) scale(-1, 1) rotate(45.000000) translate(-24.000000, -24.000000) translate(22.000000, 0.000000)">
				<path class="st0" d="M924.6,127.9c0-1.1-0.9-2-2-2c-1.1,0-2,0.9-2,2v4c0,1.1,0.9,2,2,2c1.1,0,2-0.9,2-2V127.9z"/>
				<path class="st0" d="M924.6,167.9c0-1.1-0.9-2-2-2c-1.1,0-2,0.9-2,2v4c0,1.1,0.9,2,2,2c1.1,0,2-0.9,2-2V167.9z"/>
			</g>
		</g>
	</g>
</g>
</svg>
