<?xml version="1.0" encoding="utf-8"?>
<!-- Generator: Adobe Illustrator 19.1.0, SVG Export Plug-In . SVG Version: 6.00 Build 0)  -->
<svg version="1.1" id="Layer_1" xmlns="http://www.w3.org/2000/svg" xmlns:xlink="http://www.w3.org/1999/xlink" x="0px" y="0px"
	 viewBox="-554 724.8 56 61" style="enable-background:new -554 724.8 56 61;" xml:space="preserve">
<style type="text/css">
	.st0{fill:#FFFFFF;}
</style>
<title>thunder_storm</title>
<desc>Created with Sketch.</desc>
<g>
	<g transform="translate(-662.000000, -300.000000)">
		<g transform="translate(662.000000, 300.000000)">
			<path class="st0" d="M-505,756.8c3.9,0,7-3.1,7-7c0-2.8-1.7-5.3-4.1-6.4c-0.2-0.1-0.5-0.2-0.7-0.3c-0.7-0.2-1.2-0.3-1.2-0.3
				c0-5.6-4.5-10.1-10-10.1c-0.3,0-0.7,0-1,0.1c-1,0.1-1,0.2-1,0.2c-2.8-5-8.1-8.2-14-8.2c-6.4,0-11.9,3.7-14.5,9.2
				c-0.6,1.4-1,2.9-1,2.9c-4.9,0.8-8.5,4.9-8.5,9.9c0,5.5,4.5,10,10,10h5c1.1,0,2-0.9,2-2s-0.9-2-2-2h-5c-3.3,0-6-2.7-6-6
				s2.7-6,6.2-6.1c1,0,1.8-0.7,2-1.7c0.9-5.8,5.9-10.2,11.9-10.2c4.8,0,9,2.8,10.9,7.1v0.1c0.3,1.1,1.6,1.7,2.7,1.3
				c0.7-0.3,1.5-0.5,2.3-0.5c0.3,0,0.7,0,1,0.1c2.8,0.5,5,2.9,5,5.9c0,0.2,0,0.5,0,0.7c0,0.3,0,0.5-0.1,1.1c0,0.1,0,0.1,0,0.1
				c-0.2,1.4,1.1,2.5,2.5,2.2c0.2-0.1,0.5-0.1,0.7-0.1c1.7,0,3,1.3,3,3s-1.3,3-3,3h-11c-1.1,0-2,0.9-2,2s0.9,2,2,2H-505L-505,756.8z
				"/>
			<path class="st0" d="M-506.1,762.3c0.3-1.1-0.3-2.2-1.4-2.5c-1.1-0.3-2.2,0.3-2.5,1.4l-2,7c-0.3,1.1,0.3,2.2,1.4,2.5
				s2.2-0.3,2.5-1.4L-506.1,762.3z"/>
			<path class="st0" d="M-540.1,762.3c0.3-1.1-0.3-2.2-1.4-2.5c-1.1-0.3-2.2,0.3-2.5,1.4l-2,7c-0.3,1.1,0.3,2.2,1.4,2.5
				c1.1,0.3,2.2-0.3,2.5-1.4L-540.1,762.3z"/>
			<path class="st0" d="M-533.2,765.7l5.6-16h3.8l-4,11.3c-0.5,1.3,0.5,2.7,1.9,2.7h6l-8.5,11.7l1.3-7.3c0.2-1.2-0.7-2.4-2-2.4
				H-533.2z M-534,783.4c-0.4,2.1,2.3,3.3,3.6,1.5l16-22c1-1.3,0-3.2-1.6-3.2h-7.1l4-11.4c0.5-1.3-0.5-2.7-1.9-2.7h-8
				c-0.8,0-1.6,0.5-1.9,1.3l-7,20c-0.5,1.3,0.5,2.7,1.9,2.7h4.5L-534,783.4z"/>
		</g>
	</g>
</g>
</svg>
