<?xml version="1.0" encoding="utf-8"?>
<!-- Generator: Adobe Illustrator 19.1.0, SVG Export Plug-In . SVG Version: 6.00 Build 0)  -->
<svg version="1.1" id="Layer_1" xmlns="http://www.w3.org/2000/svg" xmlns:xlink="http://www.w3.org/1999/xlink" x="0px" y="0px"
	 viewBox="-555.9 740.3 53.9 47" style="enable-background:new -555.9 740.3 53.9 47;" xml:space="preserve">
<style type="text/css">
	.st0{fill:#FFFFFF;}
</style>
<title>wind</title>
<desc>Created with Sketch.</desc>
<g>
	<g transform="translate(-421.000000, -188.000000)">
		<g transform="translate(421.000000, 188.000000)">
			<path class="st0" d="M-514,764.3c6.6,0,12-5.4,12-12s-5.4-12-12-12c-6.6,0-12,5.4-12,12c0,1.1,0.9,2,2,2c1.1,0,2-0.9,2-2
				c0-4.4,3.6-8,8-8c4.4,0,8,3.6,8,8s-3.6,8-8,8h-38c-1.1,0-2,0.9-2,2s0.9,2,2,2H-514z"/>
			<path class="st0" d="M-536,757.3c3.9,0,7-3.1,7-7s-3.1-7-7-7c-2.8,0-5.4,1.7-6.4,4.3c-0.4,1,0,2.2,1.1,2.6c1,0.4,2.2,0,2.6-1.1
				c0.5-1.1,1.5-1.8,2.8-1.8c1.7,0,3,1.3,3,3s-1.3,3-3,3h-18c-1.1,0-2,0.9-2,2s0.9,2,2,2H-536z"/>
			<path class="st0" d="M-518,771.3c3.3,0,6,2.7,6,6s-2.7,6-6,6c-3.3,0-6-2.7-6-6c0-1.1-0.9-2-2-2c-1.1,0-2,0.9-2,2
				c0,5.5,4.5,10,10,10s10-4.5,10-10s-4.5-10-10-10h-31c-1.1,0-2,0.9-2,2s0.9,2,2,2H-518z"/>
		</g>
	</g>
</g>
</svg>
